<svg width="140" height="45" viewBox="0 0 140 45" fill="none" xmlns="http://www.w3.org/2000/svg">
<path d="M132.36 1.63574H7.36047C4.04677 1.63574 1.36047 4.32203 1.36047 7.63574V37.6357C1.36047 40.9495 4.04677 43.6357 7.36047 43.6357H132.36C135.674 43.6357 138.36 40.9495 138.36 37.6357V7.63574C138.36 4.32203 135.674 1.63574 132.36 1.63574Z" fill="white" stroke="#2B0F42" stroke-width="2"/>
<path d="M49.7804 12.8759C49.7804 13.7159 49.5304 14.3859 49.0304 14.8759C48.4704 15.4659 47.7305 15.7659 46.8305 15.7659C45.9305 15.7659 45.2304 15.4659 44.6204 14.8659C44.0104 14.2659 43.7104 13.5159 43.7104 12.6359C43.7104 11.7559 44.0104 11.0059 44.6204 10.4059C45.2304 9.80586 45.9605 9.50586 46.8305 9.50586C47.2605 9.50586 47.6705 9.58586 48.0605 9.75586C48.4505 9.92586 48.7605 10.1459 49.0005 10.4259L48.4705 10.9559C48.0705 10.4859 47.5305 10.2459 46.8305 10.2459C46.2005 10.2459 45.6505 10.4659 45.1905 10.9159C44.7305 11.3559 44.5005 11.9359 44.5005 12.6459C44.5005 13.3559 44.7305 13.9359 45.1905 14.3759C45.6505 14.8159 46.2005 15.0459 46.8305 15.0459C47.5005 15.0459 48.0605 14.8259 48.5105 14.3759C48.8005 14.0859 48.9705 13.6759 49.0105 13.1559H46.8305V12.4359H49.7405C49.7705 12.5959 49.7804 12.7459 49.7804 12.8859V12.8759Z" fill="black" stroke="black" stroke-width="0.2" stroke-miterlimit="10"/>
<path d="M54.3905 10.3757H51.6605V12.2757H54.1205V12.9957H51.6605V14.8957H54.3905V15.6357H50.8905V9.63574H54.3905V10.3757Z" fill="black" stroke="black" stroke-width="0.2" stroke-miterlimit="10"/>
<path d="M57.6404 15.6357H56.8704V10.3757H55.1904V9.63574H59.3104V10.3757H57.6304V15.6357H57.6404Z" fill="black" stroke="black" stroke-width="0.2" stroke-miterlimit="10"/>
<path d="M62.3005 15.6357V9.63574H63.0705V15.6357H62.3005Z" fill="black" stroke="black" stroke-width="0.2" stroke-miterlimit="10"/>
<path d="M66.4905 15.6357H65.7205V10.3757H64.0405V9.63574H68.1605V10.3757H66.4805V15.6357H66.4905Z" fill="black" stroke="black" stroke-width="0.2" stroke-miterlimit="10"/>
<path d="M75.9704 14.8559C75.3804 15.4659 74.6504 15.7659 73.7704 15.7659C72.8904 15.7659 72.1604 15.4659 71.5704 14.8559C70.9804 14.2459 70.6904 13.5059 70.6904 12.6359C70.6904 11.7659 70.9804 11.0159 71.5704 10.4159C72.1604 9.80586 72.8904 9.50586 73.7704 9.50586C74.6504 9.50586 75.3704 9.80586 75.9704 10.4159C76.5604 11.0259 76.8604 11.7659 76.8604 12.6359C76.8604 13.5059 76.5604 14.2559 75.9804 14.8559H75.9704ZM72.1404 14.3559C72.5804 14.8059 73.1304 15.0259 73.7704 15.0259C74.4104 15.0259 74.9604 14.8059 75.4004 14.3559C75.8404 13.9059 76.0704 13.3359 76.0704 12.6359C76.0704 11.9359 75.8504 11.3659 75.4004 10.9159C74.9604 10.4659 74.4104 10.2459 73.7704 10.2459C73.1304 10.2459 72.5804 10.4659 72.1404 10.9159C71.7004 11.3659 71.4704 11.9359 71.4704 12.6359C71.4704 13.3359 71.6904 13.9059 72.1404 14.3559Z" fill="black" stroke="black" stroke-width="0.2" stroke-miterlimit="10"/>
<path d="M77.9404 15.6357V9.63574H78.8804L81.8004 14.3057H81.8304L81.8004 13.1457V9.63574H82.5704V15.6357H81.7704L78.7204 10.7457H78.6904L78.7204 11.9057V15.6457H77.9504L77.9404 15.6357Z" fill="black" stroke="black" stroke-width="0.2" stroke-miterlimit="10"/>
<mask id="path-9-inside-1_8302_20655" fill="white">
<path d="M70.5005 24.3858C68.1505 24.3858 66.2305 26.1758 66.2305 28.6358C66.2305 31.0958 68.1505 32.8858 70.5005 32.8858C72.8505 32.8858 74.7705 31.0858 74.7705 28.6358C74.7705 26.1858 72.8505 24.3858 70.5005 24.3858ZM70.5005 31.2158C69.2105 31.2158 68.1005 30.1558 68.1005 28.6358C68.1005 27.1158 69.2105 26.0558 70.5005 26.0558C71.7905 26.0558 72.9005 27.1058 72.9005 28.6358C72.9005 30.1658 71.7905 31.2158 70.5005 31.2158ZM61.1805 24.3858C58.8305 24.3858 56.9105 26.1758 56.9105 28.6358C56.9105 31.0958 58.8305 32.8858 61.1805 32.8858C63.5305 32.8858 65.4505 31.0858 65.4505 28.6358C65.4505 26.1858 63.5305 24.3858 61.1805 24.3858ZM61.1805 31.2158C59.8905 31.2158 58.7805 30.1558 58.7805 28.6358C58.7805 27.1158 59.8905 26.0558 61.1805 26.0558C62.4705 26.0558 63.5805 27.1058 63.5805 28.6358C63.5805 30.1658 62.4705 31.2158 61.1805 31.2158ZM50.1005 25.6958V27.4958H54.4205C54.2905 28.5158 53.9505 29.2558 53.4405 29.7658C52.8105 30.3958 51.8305 31.0858 50.1105 31.0858C47.4505 31.0858 45.3705 28.9458 45.3705 26.2858C45.3705 23.6258 47.4505 21.4858 50.1105 21.4858C51.5405 21.4858 52.5905 22.0458 53.3605 22.7758L54.6305 21.5058C53.5505 20.4758 52.1205 19.6858 50.1005 19.6858C46.4605 19.6858 43.4005 22.6458 43.4005 26.2958C43.4005 29.9458 46.4605 32.9058 50.1005 32.9058C52.0705 32.9058 53.5505 32.2658 54.7105 31.0558C55.9005 29.8658 56.2705 28.1858 56.2705 26.8358C56.2705 26.4158 56.2405 26.0258 56.1705 25.7058H50.1005V25.6958ZM95.4105 27.0958C95.0605 26.1458 93.9805 24.3858 91.7705 24.3858C89.5605 24.3858 87.7605 26.1058 87.7605 28.6358C87.7605 31.0158 89.5605 32.8858 91.9805 32.8858C93.9305 32.8858 95.0605 31.6958 95.5205 31.0058L94.0705 30.0358C93.5905 30.7458 92.9305 31.2158 91.9805 31.2158C91.0305 31.2158 90.3505 30.7758 89.9205 29.9258L95.6105 27.5758L95.4205 27.0958H95.4105ZM89.6105 28.5158C89.5605 26.8758 90.8805 26.0358 91.8305 26.0358C92.5705 26.0358 93.2005 26.4058 93.4105 26.9358L89.6105 28.5158ZM84.9905 32.6358H86.8605V20.1358H84.9905V32.6358ZM81.9305 25.3358H81.8705C81.4505 24.8358 80.6505 24.3858 79.6305 24.3858C77.5005 24.3858 75.5505 26.2558 75.5505 28.6558C75.5505 31.0558 77.5005 32.8958 79.6305 32.8958C80.6505 32.8958 81.4505 32.4458 81.8705 31.9258H81.9305V32.5358C81.9305 34.1658 81.0605 35.0358 79.6605 35.0358C78.5205 35.0358 77.8105 34.2158 77.5205 33.5258L75.8905 34.2058C76.3605 35.3358 77.6005 36.7158 79.6605 36.7158C81.8505 36.7158 83.7005 35.4258 83.7005 32.2858V24.6458H81.9305V25.3358ZM79.7805 31.2158C78.4905 31.2158 77.4105 30.1358 77.4105 28.6558C77.4105 27.1758 78.4905 26.0658 79.7805 26.0658C81.0705 26.0658 82.0505 27.1658 82.0505 28.6558C82.0505 30.1458 81.0505 31.2158 79.7805 31.2158ZM104.171 20.1358H99.7005V32.6358H101.571V27.8958H104.181C106.251 27.8958 108.281 26.3958 108.281 24.0158C108.281 21.6358 106.251 20.1358 104.181 20.1358H104.171ZM104.211 26.1558H101.561V21.8658H104.211C105.611 21.8658 106.401 23.0258 106.401 24.0058C106.401 24.9858 105.611 26.1458 104.211 26.1458V26.1558ZM115.751 24.3658C114.401 24.3658 113.001 24.9658 112.421 26.2758L114.081 26.9658C114.431 26.2758 115.091 26.0458 115.781 26.0458C116.741 26.0458 117.731 26.6258 117.741 27.6558V27.7858C117.401 27.5958 116.681 27.3058 115.791 27.3058C114.001 27.3058 112.191 28.2858 112.191 30.1158C112.191 31.7858 113.651 32.8658 115.291 32.8658C116.541 32.8658 117.241 32.3058 117.671 31.6458H117.731V32.6158H119.531V27.8258C119.531 25.6058 117.871 24.3658 115.731 24.3658H115.751ZM115.521 31.2158C114.911 31.2158 114.061 30.9058 114.061 30.1558C114.061 29.1958 115.121 28.8258 116.041 28.8258C116.861 28.8258 117.251 29.0058 117.741 29.2458C117.601 30.4058 116.601 31.2258 115.521 31.2258V31.2158ZM126.101 24.6358L123.961 30.0558H123.901L121.681 24.6358H119.671L123.001 32.2158L121.101 36.4258H123.051L128.181 24.6358H126.111H126.101ZM109.301 32.6358H111.171V20.1358H109.301V32.6358Z"/>
</mask>
<path d="M70.5005 24.3858C68.1505 24.3858 66.2305 26.1758 66.2305 28.6358C66.2305 31.0958 68.1505 32.8858 70.5005 32.8858C72.8505 32.8858 74.7705 31.0858 74.7705 28.6358C74.7705 26.1858 72.8505 24.3858 70.5005 24.3858ZM70.5005 31.2158C69.2105 31.2158 68.1005 30.1558 68.1005 28.6358C68.1005 27.1158 69.2105 26.0558 70.5005 26.0558C71.7905 26.0558 72.9005 27.1058 72.9005 28.6358C72.9005 30.1658 71.7905 31.2158 70.5005 31.2158ZM61.1805 24.3858C58.8305 24.3858 56.9105 26.1758 56.9105 28.6358C56.9105 31.0958 58.8305 32.8858 61.1805 32.8858C63.5305 32.8858 65.4505 31.0858 65.4505 28.6358C65.4505 26.1858 63.5305 24.3858 61.1805 24.3858ZM61.1805 31.2158C59.8905 31.2158 58.7805 30.1558 58.7805 28.6358C58.7805 27.1158 59.8905 26.0558 61.1805 26.0558C62.4705 26.0558 63.5805 27.1058 63.5805 28.6358C63.5805 30.1658 62.4705 31.2158 61.1805 31.2158ZM50.1005 25.6958V27.4958H54.4205C54.2905 28.5158 53.9505 29.2558 53.4405 29.7658C52.8105 30.3958 51.8305 31.0858 50.1105 31.0858C47.4505 31.0858 45.3705 28.9458 45.3705 26.2858C45.3705 23.6258 47.4505 21.4858 50.1105 21.4858C51.5405 21.4858 52.5905 22.0458 53.3605 22.7758L54.6305 21.5058C53.5505 20.4758 52.1205 19.6858 50.1005 19.6858C46.4605 19.6858 43.4005 22.6458 43.4005 26.2958C43.4005 29.9458 46.4605 32.9058 50.1005 32.9058C52.0705 32.9058 53.5505 32.2658 54.7105 31.0558C55.9005 29.8658 56.2705 28.1858 56.2705 26.8358C56.2705 26.4158 56.2405 26.0258 56.1705 25.7058H50.1005V25.6958ZM95.4105 27.0958C95.0605 26.1458 93.9805 24.3858 91.7705 24.3858C89.5605 24.3858 87.7605 26.1058 87.7605 28.6358C87.7605 31.0158 89.5605 32.8858 91.9805 32.8858C93.9305 32.8858 95.0605 31.6958 95.5205 31.0058L94.0705 30.0358C93.5905 30.7458 92.9305 31.2158 91.9805 31.2158C91.0305 31.2158 90.3505 30.7758 89.9205 29.9258L95.6105 27.5758L95.4205 27.0958H95.4105ZM89.6105 28.5158C89.5605 26.8758 90.8805 26.0358 91.8305 26.0358C92.5705 26.0358 93.2005 26.4058 93.4105 26.9358L89.6105 28.5158ZM84.9905 32.6358H86.8605V20.1358H84.9905V32.6358ZM81.9305 25.3358H81.8705C81.4505 24.8358 80.6505 24.3858 79.6305 24.3858C77.5005 24.3858 75.5505 26.2558 75.5505 28.6558C75.5505 31.0558 77.5005 32.8958 79.6305 32.8958C80.6505 32.8958 81.4505 32.4458 81.8705 31.9258H81.9305V32.5358C81.9305 34.1658 81.0605 35.0358 79.6605 35.0358C78.5205 35.0358 77.8105 34.2158 77.5205 33.5258L75.8905 34.2058C76.3605 35.3358 77.6005 36.7158 79.6605 36.7158C81.8505 36.7158 83.7005 35.4258 83.7005 32.2858V24.6458H81.9305V25.3358ZM79.7805 31.2158C78.4905 31.2158 77.4105 30.1358 77.4105 28.6558C77.4105 27.1758 78.4905 26.0658 79.7805 26.0658C81.0705 26.0658 82.0505 27.1658 82.0505 28.6558C82.0505 30.1458 81.0505 31.2158 79.7805 31.2158ZM104.171 20.1358H99.7005V32.6358H101.571V27.8958H104.181C106.251 27.8958 108.281 26.3958 108.281 24.0158C108.281 21.6358 106.251 20.1358 104.181 20.1358H104.171ZM104.211 26.1558H101.561V21.8658H104.211C105.611 21.8658 106.401 23.0258 106.401 24.0058C106.401 24.9858 105.611 26.1458 104.211 26.1458V26.1558ZM115.751 24.3658C114.401 24.3658 113.001 24.9658 112.421 26.2758L114.081 26.9658C114.431 26.2758 115.091 26.0458 115.781 26.0458C116.741 26.0458 117.731 26.6258 117.741 27.6558V27.7858C117.401 27.5958 116.681 27.3058 115.791 27.3058C114.001 27.3058 112.191 28.2858 112.191 30.1158C112.191 31.7858 113.651 32.8658 115.291 32.8658C116.541 32.8658 117.241 32.3058 117.671 31.6458H117.731V32.6158H119.531V27.8258C119.531 25.6058 117.871 24.3658 115.731 24.3658H115.751ZM115.521 31.2158C114.911 31.2158 114.061 30.9058 114.061 30.1558C114.061 29.1958 115.121 28.8258 116.041 28.8258C116.861 28.8258 117.251 29.0058 117.741 29.2458C117.601 30.4058 116.601 31.2258 115.521 31.2258V31.2158ZM126.101 24.6358L123.961 30.0558H123.901L121.681 24.6358H119.671L123.001 32.2158L121.101 36.4258H123.051L128.181 24.6358H126.111H126.101ZM109.301 32.6358H111.171V20.1358H109.301V32.6358Z" fill="black" stroke="black" stroke-width="2" mask="url(#path-9-inside-1_8302_20655)"/>
<path d="M23.0804 22.0559L12.4304 33.3559C12.7604 34.5859 13.8804 35.4859 15.2104 35.4859C15.7404 35.4859 16.2404 35.3459 16.6704 35.0859L16.7004 35.0659L28.6804 28.1559L23.0704 22.0459L23.0804 22.0559Z" fill="#EA4335"/>
<path d="M33.8505 20.1357H33.8405L28.6705 17.1257L22.8405 22.3157L28.6905 28.1657L33.8405 25.1957C34.7405 24.7057 35.3505 23.7557 35.3505 22.6657C35.3505 21.5757 34.7505 20.6257 33.8505 20.1457V20.1357Z" fill="#FBBC04"/>
<path d="M12.4304 11.9158C12.3704 12.1558 12.3304 12.3958 12.3304 12.6558V32.6258C12.3304 32.8858 12.3604 33.1258 12.4304 33.3658L23.4404 22.3558L12.4304 11.9158Z" fill="#4285F4"/>
<path d="M23.1604 22.6359L28.6704 17.1259L16.7004 10.1859C16.2704 9.92588 15.7604 9.77588 15.2104 9.77588C13.8804 9.77588 12.7604 10.6859 12.4304 11.9059L23.1604 22.6259V22.6359Z" fill="#34A853"/>
</svg>

